<svg width="480" height="480" viewBox="0 0 480 480" fill="none" xmlns="http://www.w3.org/2000/svg">
<path fill-rule="evenodd" clip-rule="evenodd" d="M393 198V208L73 338L393 198Z" fill="white"/>
<path fill-rule="evenodd" clip-rule="evenodd" d="M393 178V188L73 338L393 178Z" fill="white"/>
<path fill-rule="evenodd" clip-rule="evenodd" d="M393 158V168L73 338L393 158Z" fill="white"/>
<path fill-rule="evenodd" clip-rule="evenodd" d="M393 138V148L73 338L393 138Z" fill="white"/>
<path fill-rule="evenodd" clip-rule="evenodd" d="M393 118V128L73 338L393 118Z" fill="white"/>
<path fill-rule="evenodd" clip-rule="evenodd" d="M393 98V108L73 338L393 98Z" fill="white"/>
<path fill-rule="evenodd" clip-rule="evenodd" d="M193 169.999V283C193 302.33 208.67 318 228 318C247.33 318 263 302.33 263 283V131.5L333 93V283C333 338.228 288.228 383 233 383C177.772 383 133 338.228 133 283V203L193 169.999Z" fill="white"/>
</svg>
